HIERARCHY
ROOT Hips
{
	OFFSET -0.001795 -0.223333 0.028219
	CHANNELS 6 Xposition Yposition Zposition Zrotation Yrotation Xrotation 
	JOINT LeftUpLeg
	{
		OFFSET 0.069520 -0.091406 -0.006815
		CHANNELS 3 Zrotation Yrotation Xrotation
		JOINT LeftLeg
		{
			OFFSET 0.034277 -0.375199 -0.004496
			CHANNELS 3 Zrotation Yrotation Xrotation
			JOINT LeftFoot
			{
				OFFSET -0.013596 -0.397961 -0.043693
				CHANNELS 3 Zrotation Yrotation Xrotation
				JOINT LeftToe
				{
					OFFSET 0.026358 -0.055791 0.119288
					CHANNELS 3 Zrotation Yrotation Xrotation
					End Site
					{
						OFFSET 0.000000 0.000000 0.000000
					}
				}
			}
		}
	}
	JOINT RightUpLeg
	{
		OFFSET -0.067670 -0.090522 -0.004320
		CHANNELS 3 Zrotation Yrotation Xrotation
		JOINT RightLeg
		{
			OFFSET -0.038290 -0.382569 -0.008850
			CHANNELS 3 Zrotation Yrotation Xrotation
			JOINT RightFoot
			{
				OFFSET 0.015774 -0.398415 -0.042312
				CHANNELS 3 Zrotation Yrotation Xrotation
				JOINT RightToe
				{
					OFFSET -0.025372 -0.048144 0.123348
					CHANNELS 3 Zrotation Yrotation Xrotation
					End Site
					{
						OFFSET 0.000000 0.000000 0.000000
					}
				}
			}
		}
	}
	JOINT Spine
	{
		OFFSET -0.002533 0.108963 -0.026696
		CHANNELS 3 Zrotation Yrotation Xrotation
		JOINT Spine1
		{
			OFFSET 0.005487 0.135180 0.001092
			CHANNELS 3 Zrotation Yrotation Xrotation
			JOINT Spine2
			{
				OFFSET 0.001457 0.052922 0.025425
				CHANNELS 3 Zrotation Yrotation Xrotation
				JOINT Neck
				{
					OFFSET -0.002778 0.213870 -0.042857
					CHANNELS 3 Zrotation Yrotation Xrotation
					JOINT Head
					{
						OFFSET 0.005152 0.064970 0.051349
						CHANNELS 3 Zrotation Yrotation Xrotation
						End Site
						{
							OFFSET 0.000000 0.000000 0.000000
						}
					}
				}
				JOINT LeftShoulder
				{
					OFFSET 0.078845 0.121749 -0.034090
					CHANNELS 3 Zrotation Yrotation Xrotation
					JOINT LeftArm
					{
						OFFSET 0.090977 0.030469 -0.008868
						CHANNELS 3 Zrotation Yrotation Xrotation
						JOINT LeftForeArm
						{
							OFFSET 0.259612 -0.012772 -0.027456
							CHANNELS 3 Zrotation Yrotation Xrotation
							JOINT LeftHand
							{
								OFFSET 0.249234 0.008986 -0.001171
								CHANNELS 3 Zrotation Yrotation Xrotation
								End Site
								{
									OFFSET 0.000000 0.000000 0.000000
								}
							}
						}
					}
				}
				JOINT RightShoulder
				{
					OFFSET -0.081759 0.118833 -0.038615
					CHANNELS 3 Zrotation Yrotation Xrotation
					JOINT RightArm
					{
						OFFSET -0.096012 0.032551 -0.009143
						CHANNELS 3 Zrotation Yrotation Xrotation
						JOINT RightForeArm
						{
							OFFSET -0.253742 -0.013329 -0.021401
							CHANNELS 3 Zrotation Yrotation Xrotation
							JOINT RightHand
							{
								OFFSET -0.255298 0.007772 -0.005559
								CHANNELS 3 Zrotation Yrotation Xrotation
								End Site
								{
									OFFSET 0.000000 0.000000 0.000000
								}
							}
						}
					}
				}
			}
		}
	}
}
MOTION
Frames: 14
Frame Time: 0.050000
0.000000 0.878068 0.000000 2.527719 2.297587 43.372598 12.900452 0.176209 -66.677267 -10.494774 2.468349 21.947361 9.658447 22.634492 9.855579 0.000000 0.000000 0.000000 -14.683297 -2.834474 -71.154204 6.128193 -1.200741 22.686214 -2.602431 -9.490871 7.005239 0.000000 0.000000 0.000000 3.897696 -5.839496 50.863314 1.823266 -0.499629 -5.674690 -4.912580 3.815130 17.643962 11.671125 -6.431296 -10.959312 0.000000 0.000000 0.000000 -0.821021 8.001152 -4.128917 -66.958818 7.368882 -13.509043 -56.732610 -30.897922 17.634517 0.000000 0.000000 0.000000 3.502416 -8.595559 -4.036328 64.195668 -1.964298 -7.139817 73.053496 67.269836 58.904332 0.000000 0.000000 0.000000 
-0.002600 0.871615 -0.006061 1.562859 2.060686 47.419450 15.217082 1.881024 -70.253737 -10.572630 2.512406 21.231435 9.150990 21.923180 8.694943 0.000000 0.000000 0.000000 -12.688455 -1.669276 -75.279415 4.782009 -0.688920 21.171897 -1.547526 -7.944385 9.677728 0.000000 0.000000 0.000000 1.882680 -4.323261 49.399754 4.920352 -1.810940 -2.468938 -5.899261 5.758992 16.441931 11.966498 -7.944035 -4.831875 0.000000 0.000000 0.000000 -0.971242 2.408675 -1.932139 -66.096777 10.754573 -15.374832 -64.460604 -42.109738 26.867745 0.000000 0.000000 0.000000 5.482667 -9.045522 -4.223373 62.314598 -3.082307 -7.096778 59.926988 76.708056 56.382104 0.000000 0.000000 0.000000 
-0.004215 0.865766 -0.010479 1.834501 1.529597 47.827778 15.284011 2.183744 -71.286945 -9.766787 2.390189 22.842174 8.265400 20.318054 7.123164 0.000000 0.000000 0.000000 -14.093577 -2.623031 -77.652837 8.117371 -1.871288 24.494865 -3.062695 -11.304501 9.001159 0.000000 0.000000 0.000000 0.622032 -3.677549 52.917007 7.274151 -2.736064 -2.349441 -6.982256 7.456614 14.831831 11.867470 -8.968671 -0.903553 0.000000 0.000000 0.000000 -0.793743 0.404155 -1.197640 -64.383991 10.637155 -14.871270 -59.924658 -45.192234 26.071722 0.000000 0.000000 0.000000 3.890289 -9.616379 -4.180259 60.677563 -4.423238 -7.062493 82.066123 72.479867 73.163287 0.000000 0.000000 0.000000 
-0.005082 0.860307 -0.012622 2.400257 2.836014 49.221146 16.128833 2.223273 -74.310955 -11.276316 2.811160 22.504976 8.177351 20.621971 8.009937 0.000000 0.000000 0.000000 -13.537219 -3.377006 -80.749129 7.590961 -1.840020 26.651971 -1.409560 -7.304912 8.872807 0.000000 0.000000 0.000000 0.734983 -4.325627 53.276770 6.681725 -2.885470 1.367249 -6.930336 4.876848 12.900975 9.254163 -7.293373 0.931410 0.000000 0.000000 0.000000 -1.130789 0.240991 -0.959232 -64.567117 10.599650 -14.467399 -58.275703 -50.185844 29.099681 0.000000 0.000000 0.000000 2.311900 -8.614765 -3.803088 62.388490 -3.655772 -6.984249 78.832084 76.816190 73.297712 0.000000 0.000000 0.000000 
-0.005123 0.852283 -0.012961 3.038116 3.827003 49.133675 16.121124 1.746469 -75.870587 -12.893506 3.372062 23.430109 8.986824 22.485814 7.827260 0.000000 0.000000 0.000000 -13.902843 -4.499663 -82.021985 8.021919 -2.180177 29.167826 -1.451392 -6.717342 6.808730 0.000000 0.000000 0.000000 0.763860 -4.898440 54.943299 6.906151 -3.031960 1.700244 -7.649401 4.106816 12.723511 8.124276 -6.749332 2.411542 0.000000 0.000000 0.000000 -3.403205 -2.351495 -0.039022 -61.782876 8.326689 -12.342150 -55.252352 -56.490679 31.718220 0.000000 0.000000 0.000000 4.395340 -7.814927 -3.697732 60.403613 -2.298787 -6.342193 71.030905 74.107094 63.223787 0.000000 0.000000 0.000000 
-0.004248 0.844857 -0.012148 3.028029 4.455366 48.656396 15.761236 1.301498 -77.193653 -13.998506 3.842323 24.720471 8.403436 21.434299 6.350771 0.000000 0.000000 0.000000 -14.002187 -5.086197 -83.211327 8.324580 -2.489731 31.793966 -1.487225 -6.369786 5.588970 0.000000 0.000000 0.000000 0.697666 -5.295533 56.757556 6.437799 -3.002670 3.330540 -7.295913 3.928019 11.261636 8.274389 -7.063050 3.402018 0.000000 0.000000 0.000000 -6.435586 -4.883585 0.825162 -58.638907 7.221808 -10.738431 -49.731531 -61.081033 31.050994 0.000000 0.000000 0.000000 5.163364 -7.233393 -3.509958 59.841081 -1.979981 -6.099990 57.694721 73.099007 50.389818 0.000000 0.000000 0.000000 
-0.002953 0.837690 -0.011213 3.219396 5.368947 48.470780 16.013062 1.036905 -78.253973 -14.979564 4.236775 25.521876 8.526110 21.868387 6.044518 0.000000 0.000000 0.000000 -14.306690 -6.118897 -84.384617 9.190498 -3.074908 34.231105 -2.173874 -7.699119 4.464598 0.000000 0.000000 0.000000 0.386662 -5.733965 59.224853 6.634555 -2.965483 1.896929 -7.293327 4.226973 11.739155 8.682207 -6.777708 0.769439 0.000000 0.000000 0.000000 -5.352029 -5.369221 1.107629 -60.066279 6.423988 -10.805343 -49.600578 -61.995190 31.456839 0.000000 0.000000 0.000000 4.633881 -6.280296 -2.923833 61.896187 -1.130953 -5.819290 44.928300 69.176058 37.231636 0.000000 0.000000 0.000000 
-0.002042 0.832164 -0.010660 3.001633 5.994593 48.678981 16.847716 1.398602 -79.216309 -16.188201 4.786587 26.442689 8.392439 21.717928 5.184978 0.000000 0.000000 0.000000 -13.832006 -6.348630 -86.180639 9.720471 -3.547242 37.103256 -2.625214 -8.435046 2.993173 0.000000 0.000000 0.000000 -0.222300 -5.732064 60.849657 6.755022 -3.041259 2.022107 -7.110314 5.707563 10.735159 9.853276 -7.321631 -0.632528 0.000000 0.000000 0.000000 -4.408479 -6.840671 1.628554 -61.352162 6.008585 -10.997063 -51.213092 -61.213842 31.508951 0.000000 0.000000 0.000000 3.558859 -6.357556 -2.705276 64.429733 -2.536868 -6.282994 39.395598 63.510905 29.830008 0.000000 0.000000 0.000000 
-0.001896 0.826471 -0.010693 2.755736 6.591024 48.183813 17.339213 1.518708 -80.010451 -16.510664 5.127173 28.164706 7.954719 20.774929 3.878200 0.000000 0.000000 0.000000 -12.870557 -6.075472 -87.608987 9.827589 -3.742786 39.340561 -3.136694 -9.640434 2.629173 0.000000 0.000000 0.000000 -0.900997 -5.660294 62.735694 6.566751 -2.823557 0.505319 -6.257420 5.791152 12.072152 9.470831 -6.659031 -2.293905 0.000000 0.000000 0.000000 -3.257150 -4.592361 0.737019 -61.764660 6.640756 -11.631093 -53.011507 -57.951964 30.709976 0.000000 0.000000 0.000000 2.350824 -7.095220 -2.976400 67.242910 -4.347556 -7.544206 34.689265 56.938352 23.006604 0.000000 0.000000 0.000000 
-0.002592 0.819955 -0.011984 2.159128 6.634095 47.742378 18.469827 2.492145 -80.892959 -17.835504 6.036772 30.443326 8.142657 21.039165 2.416283 0.000000 0.000000 0.000000 -12.237605 -5.701744 -89.538360 10.869727 -4.371396 41.216574 -3.688883 -11.195490 3.171430 0.000000 0.000000 0.000000 -1.913260 -4.968081 64.001833 6.967041 -3.052589 0.999992 -6.492107 6.551010 11.334057 9.744140 -6.761621 -2.626260 0.000000 0.000000 0.000000 -2.427945 -3.431183 0.237666 -61.451181 8.063350 -12.357849 -57.827415 -56.116431 32.222850 0.000000 0.000000 0.000000 2.855857 -7.403714 -3.088009 67.478887 -6.526202 -8.582192 34.588636 53.309549 21.102479 0.000000 0.000000 0.000000 
-0.003877 0.809079 -0.014496 1.769809 6.961312 47.585898 19.915055 3.661435 -82.764094 -19.529433 7.427326 33.897499 8.274242 21.225510 1.195916 0.000000 0.000000 0.000000 -11.344488 -5.292448 -91.679956 11.324074 -4.807541 44.041049 -4.005793 -11.833109 2.358979 0.000000 0.000000 0.000000 -2.735100 -4.590522 65.604314 7.156674 -3.016249 -0.141662 -6.374031 6.787750 12.140724 9.760447 -6.759246 -2.750036 0.000000 0.000000 0.000000 -1.556658 -1.684479 -0.414325 -59.842580 8.912681 -12.450454 -62.677578 -55.269558 34.588102 0.000000 0.000000 0.000000 3.872935 -7.911802 -3.384423 66.851208 -7.968613 -9.379791 33.244399 51.078560 19.282004 0.000000 0.000000 0.000000 
-0.005133 0.798289 -0.017182 1.126288 6.952725 47.396396 21.738379 5.300757 -83.443620 -22.365011 9.286768 35.941463 8.960635 22.724971 -0.794642 0.000000 0.000000 0.000000 -10.990114 -5.040403 -93.527870 13.206064 -6.025892 46.184613 -4.824212 -13.776853 1.374748 0.000000 0.000000 0.000000 -3.573992 -3.928856 66.638631 7.170471 -3.100659 0.548240 -6.238601 7.748182 11.146463 10.818115 -7.680146 -2.177256 0.000000 0.000000 0.000000 -0.692371 -0.310612 -0.952722 -58.430031 9.164311 -12.231064 -67.457414 -54.469283 36.706347 0.000000 0.000000 0.000000 5.310028 -8.611073 -3.716536 65.163855 -8.631126 -9.299062 34.262577 50.199572 19.623924 0.000000 0.000000 0.000000 
-0.005884 0.786417 -0.018539 0.797784 7.005163 46.675924 23.608712 7.015457 -84.520415 -25.193495 11.723032 39.481882 9.567431 23.730895 -0.932115 0.000000 0.000000 0.000000 -11.462101 -5.663798 -94.857046 15.828851 -7.797231 47.999385 -5.671696 -15.887526 1.291838 0.000000 0.000000 0.000000 -4.076205 -3.554978 67.317153 7.473608 -3.297194 1.054663 -6.765586 7.429982 10.877019 10.980470 -7.791513 -2.196560 0.000000 0.000000 0.000000 -0.474417 -0.155976 -0.906047 -56.571016 9.414823 -11.811154 -73.093691 -56.212983 42.065472 0.000000 0.000000 0.000000 6.874873 -7.675556 -3.346064 63.335859 -8.522486 -9.175311 37.457231 51.837709 22.127735 0.000000 0.000000 0.000000 
-0.005969 0.778494 -0.018221 -0.311556 6.631118 45.722253 25.139183 8.843261 -85.146106 -26.477564 13.443942 42.575237 9.861852 23.841371 -0.132216 0.000000 0.000000 0.000000 -11.688517 -5.484445 -95.494413 17.966325 -9.234448 48.992867 -5.951104 -16.621243 1.622783 0.000000 0.000000 0.000000 -4.573859 -2.895252 67.688839 6.750789 -3.085990 1.966451 -6.489045 7.249761 10.012972 11.115719 -7.755217 -2.648666 0.000000 0.000000 0.000000 -0.157524 -0.593700 -0.611445 -54.729463 8.957254 -11.048830 -78.003971 -58.657060 47.997045 0.000000 0.000000 0.000000 8.630083 -6.421433 -2.773347 60.990531 -7.269428 -8.377344 41.030414 55.744056 26.410443 0.000000 0.000000 0.000000 
